{
.appVersion = "3227";
.formatVersion = 3;
DisplayStrings = (
"𞊜𞊢𞊝",
"𞊜",
"◌"
);
axes = (
{
name = Weight;
tag = wght;
}
);
customParameters = (
{
name = "Enforce Compatibility Check";
value = 1;
},
{
name = glyphOrder;
value = (
.notdef,
NULL,
CR,
space,
u1E290,
u1E291,
u1E292,
u1E293,
u1E294,
u1E295,
u1E296,
u1E297,
u1E298,
u1E299,
u1E29A,
u1E29B,
u1E29C,
u1E29D,
u1E29E,
u1E29F,
u1E2A0,
u1E2A1,
u1E2A2,
u1E2A3,
u1E2A4,
u1E2A5,
u1E2A6,
u1E2A7,
u1E2A8,
u1E2A9,
u1E2AA,
u1E2AB,
u1E2AC,
u1E2AD,
u1E2AE,
breathbottom.comp,
"breathbottom-I.comp",
"breathbottom-AE.comp",
uni25CC,
nbspace
);
},
{
name = unicodeRanges;
value = (
0,
1,
45,
57
);
},
{
name = "Has WWS Names";
value = 1;
},
{
name = fsType;
value = (
);
},
{
name = codePageRanges;
value = (
1252
);
},
{
name = "TrueType Curve Error";
value = 0.3;
},
{
name = panose;
value = (
2,
2,
5,
2,
6,
5,
5,
2,
2,
4
);
},
{
name = "Use Typo Metrics";
value = 1;
},
{
name = "meta Table";
value = (
{
data = Toto;
tag = dlng;
},
{
data = Toto;
tag = slng;
}
);
}
);
date = "2021-12-08 13:42:16 +0000";
familyName = "Noto Serif Toto";
featurePrefixes = (
{
code = "languagesystem DFLT dflt;
languagesystem toto dflt;";
name = LanguageSystems;
}
);
features = (
{
code = "# Automatic Code Start";
tag = mark;
},
{
code = "# Automatic Code Start";
tag = abvm;
}
);
fontMaster = (
{
axesValues = (
94
);
customParameters = (
{
name = typoAscender;
value = 925;
},
{
name = typoDescender;
value = -378;
},
{
name = typoLineGap;
value = 0;
},
{
name = winAscent;
value = 979;
},
{
name = winDescent;
value = 378;
},
{
name = hheaAscender;
value = 925;
},
{
name = hheaDescender;
value = -378;
},
{
name = hheaLineGap;
value = 0;
},
{
name = underlinePosition;
value = -100;
},
{
name = underlineThickness;
value = 50;
},
{
name = panose;
value = (
2,
2,
5,
2,
6,
5,
5,
2,
2,
4
);
}
);
id = "E40B9561-B6E0-4D94-A2F7-63596B9AF675";
metricValues = (
{
over = 15;
pos = 800;
},
{
over = 12;
pos = 720;
},
{
over = 12;
pos = 622;
},
{
over = -15;
},
{

glyphs = (
{
category = Separator;
glyphname = .notdef;
lastChange = "2021-12-16 15:11:45 +0000";
layers = (
{
layerId = "E40B9561-B6E0-4D94-A2F7-63596B9AF675";
shapes = (
{
closed = 1;
nodes = (
(505,0,l),
(505,714,l),
(94,714,l),
(94,0,l)
);
},
{
closed = 1;
nodes = (
(145,663,l),
(454,663,l),
(454,51,l),
(145,51,l)
);
}
);
width = 600;
},
{
layerId = "D419D424-3725-4B78-A608-932C6DF68265";
shapes = (
{
closed = 1;
nodes = (
(505,0,l),
(505,714,l),
(94,714,l),
(94,0,l)
);
},
{
closed = 1;
nodes = (
(145,663,l),
(454,663,l),
(454,51,l),
(145,51,l)
);
}
);
width = 600;
}
);
script = "";
subCategory = Other;
},
{
category = Letter;
glyphname = u1E290;
kernLeft = Toto_IU;
kernRight = Toto_IU;
lastChange = "2021-12-16 15:11:45 +0000";
layers = (
{
layerId = "E40B9561-B6E0-4D94-A2F7-63596B9AF675";
shapes = (
{
closed = 1;
nodes = (
(552,-250,l),
(591,-163,l),
(543,-100,o),
(472,-25,o),
(408,41,c),
(384,-13,l),
(535,64,o),
(618,174,o),
(618,325,cs),
(618,493,o),
(509,632,o),
(335,632,cs),
(166,632,o),
(48,501,o),
(48,306,cs),
(48,177,o),
(100,91,o),
(172,91,cs),
(208,91,o),
(236,110,o),
(236,150,cs),
(236,166,o),
(231,182,o),
(221,193,c),
(121,193,l),
(121,154,l),
(153,178,l),
(119,192,o),
(104,242,o),
(104,298,cs),
(104,441,o),
(203,540,o),
(349,540,cs),
(484,540,o),
(562,457,o),
(562,336,cs),
(562,201,o),
(465,117,o),
(322,62,c),
(322,53,l),
(403,-51,o),
(477,-152,o),
(544,-250,c)
);
},
{
closed = 1;
nodes = (
(369,257,o),
(394,284,o),
(394,322,cs),
(394,360,o),
(370,385,o),
(334,385,cs),
(297,385,o),
(272,358,o),
(272,320,cs),
(272,282,o),
(296,257,o),
(332,257,cs)
);
}
);
width = 666;
},
{
layerId = "D419D424-3725-4B78-A608-932C6DF68265";
shapes = (
{
closed = 1;
nodes = (
(550,-250,l),
(642,-118,l),
(574,-48,o),
(501,17,o),
(421,79,c),
(413,-10,l),
(567,76,o),
(644,186,o),
(644,341,cs),
(644,535,o),
(519,636,o),
(350,636,cs),
(151,636,o),
(40,495,o),
(40,299,cs),
(40,160,o),
(96,71,o),
(179,71,cs),
(230,71,o),
(270,104,o),
(270,172,cs),
(270,203,o),
(262,224,o),
(246,243,c),
(84,243,l),
(92,165,l),
(163,196,l),
(141,207,o),
(124,243,o),
(124,292,cs),
(124,413,o),
(223,490,o),
(372,490,cs),
(482,490,o),
(560,447,o),
(560,349,cs),
(560,242,o),
(467,171,o),
(317,118,c),
(317,109,l),
(399,-11,o),
(475,-130,o),
(542,-250,c)
);
},
{
closed = 1;
nodes = (
(393,236,o),
(429,271,o),
(429,327,cs),
(429,383,o),
(394,416,o),
(343,416,cs),
(291,416,o),
(255,381,o),
(255,325,cs),
(255,269,o),
(290,236,o),
(341,236,cs)
);
}
);
width = 684;
}
);
metricLeft = u1E2A3;
metricRight = u1E2A3;
script = default;
subCategory = Other;
unicode = 123536;
},
{
category = Letter;
glyphname = u1E291;
kernLeft = Toto_BA;
kernRight = Toto_IU;
lastChange = "2022-09-05 13:18:34 +0000";
layers = (
{
layerId = "E40B9561-B6E0-4D94-A2F7-63596B9AF675";
shapes = (
{
closed = 1;
nodes = (
(175,-250,l),
(162,63,ls),
(159,131,o),
(158,192,o),
(158,245,cs),
(158,442,o),
(226,540,o),
(366,540,cs),
(474,540,o),
(540,483,o),
(540,356,cs),
(540,179,o),
(398,90,o),
(138,85,c),
(10,85,l),
(10,76,l),
(101,0,l),
(148,0,l),
(433,6,o),
(596,124,o),
(596,346,cs),
(596,527,o),
(499,632,o),
(350,632,cs),
(188,632,o),
(93,506,o),
(93,284,cs),
(93,-203,l),
(165,-250,l)
);
}
);
width = 644;
},
{
layerId = "D419D424-3725-4B78-A608-932C6DF68265";
shapes = (
{
closed = 1;
nodes = (
(236,-250,l),
(213,40,ls),
(209,92,o),
(204,161,o),
(204,216,cs),
(204,427,o),
(288,486,o),
(394,486,cs),
(493,486,o),
(543,432,o),
(543,349,cs),
(543,211,o),
(399,136,o),
(147,133,c),
(8,133,l),
(8,124,l),
(117,0,l),
(158,0,l),
(444,6,o),
(627,114,o),
(627,344,cs),
(627,524,o),
(519,634,o),
(364,634,cs),
(200,634,o),
(104,512,o),
(104,269,cs),
(104,-191,l),
(226,-250,l)
);
}
);
width = 667;
}
);
metricLeft = "=u1E2A3*0.2";
metricRight = u1E2A3;
script = default;
subCategory = Other;
unicode = 123537;
},
{
category = Letter;
glyphname = u1E292;
kernLeft = Toto_TA;
kernRight = Toto_TA;
lastChange = "2021-12-16 15:11:45 +0000";
layers = (
{
layerId = "E40B9561-B6E0-4D94-A2F7-63596B9AF675";
shapes = (
{
closed = 1;
nodes = (
(409,175,o),
(503,270,o),
(503,405,cs),
(503,540,o),
(411,632,o),
(274,632,cs),
(137,632,o),
(43,538,o),
(43,402,cs),
(43,267,o),
(135,175,o),
(272,175,cs)
);
},
{
closed = 1;
nodes = (
(311,-36,l),
(311,201,l),
(235,201,l),
(235,7,l),
(303,-36,l)
);
},
{
closed = 1;
nodes = (
(156,263,o),
(99,311,o),
(99,391,cs),
(99,483,o),
(172,544,o),
(288,544,cs),
(389,544,o),
(447,496,o),
(447,416,cs),
(447,324,o),
(373,263,o),
(258,263,cs)
);
}
);
width = 546;
},
{
layerId = "D419D424-3725-4B78-A608-932C6DF68265";
shapes = (
{
closed = 1;
nodes = (
(424,168,o),
(520,271,o),
(520,410,cs),
(520,547,o),
(428,636,o),
(285,636,cs),
(132,636,o),
(36,533,o),
(36,395,cs),
(36,259,o),
(128,168,o),
(271,168,cs)
);
},
{
closed = 1;
nodes = (
(336,-36,l),
(336,209,l),
(220,209,l),
(220,17,l),
(328,-36,l)
);
},
{
closed = 1;
nodes = (
(166,304,o),
(116,330,o),
(116,386,cs),
(116,456,o),
(193,500,o),
(304,500,cs),
(390,500,o),
(440,474,o),
(440,418,cs),
(440,348,o),
(364,304,o),
(252,304,cs)
);
}
);
width = 556;
}
);
metricLeft = "=u1E2A3*0.9";
metricRight = "=|";
script = default;
subCategory = Other;
unicode = 123538;
},
{
category = Letter;
glyphname = u1E293;
lastChange = "2021-12-16 15:11:45 +0000";
layers = (
{
layerId = "E40B9561-B6E0-4D94-A2F7-63596B9AF675";
shapes = (
{
closed = 1;
nodes = (
(409,-104,o),
(503,-10,o),
(503,126,cs),
(503,260,o),
(411,351,o),
(274,351,cs),
(137,351,o),
(43,258,o),
(43,123,cs),
(43,-12,o),
(135,-104,o),
(272,-104,cs)
);
},
{
closed = 1;
nodes = (
(156,-16,o),
(99,32,o),
(99,112,cs),
(99,204,o),
(172,265,o),
(288,265,cs),
(390,265,o),
(447,217,o),
(447,137,cs),
(447,45,o),
(374,-16,o),
(258,-16,cs)
);
},
{
closed = 1;
nodes = (
(311,338,l),
(311,568,l),
(235,568,l),
(235,338,l)
);
},
{
closed = 1;
nodes = (
(516,540,l),
(516,550,l),
(470,622,l),
(30,622,l),
(30,612,l),
(76,540,l)
);
}
);
width = 546;
},
{
layerId = "D419D424-3725-4B78-A608-932C6DF68265";
shapes = (
{
closed = 1;
nodes = (
(424,-108,o),
(520,-5,o),
(520,134,cs),
(520,271,o),
(428,360,o),
(285,360,cs),
(132,360,o),
(36,257,o),
(36,119,cs),
(36,-17,o),
(128,-108,o),
(271,-108,cs)
);
},
{
closed = 1;
nodes = (
(166,28,o),
(116,54,o),
(116,110,cs),
(116,180,o),
(193,224,o),
(304,224,cs),
(390,224,o),
(440,198,o),
(440,142,cs),
(440,72,o),
(364,28,o),
(252,28,cs)
);
},
{
closed = 1;
nodes = (
(336,327,l),
(336,519,l),
(220,519,l),
(220,327,l)
);
},
{
closed = 1;
nodes = (
(538,500,l),
(538,510,l),
(472,622,l),
(18,622,l),
(18,612,l),
(84,500,l)
);
}
);
width = 556;
}
);
metricRight = "=|";
metricWidth = u1E292;
script = default;
subCategory = Other;
unicode = 123539;
},
{
category = Letter;
glyphname = u1E294;
kernLeft = Toto_Ka;
kernRight = Toto_IU;
lastChange = "2022-09-05 13:19:09 +0000";
layers = (
{
layerId = "E40B9561-B6E0-4D94-A2F7-63596B9AF675";
shapes = (
{
closed = 1;
nodes = (
(140,-250,l),
(127,63,ls),
(124,131,o),
(123,192,o),
(123,245,cs),
(123,442,o),
(190,540,o),
(327,540,cs),
(435,540,o),
(500,479,o),
(500,372,cs),
(500,268,o),
(440,166,o),
(280,105,c),
(280,96,l),
(337,24,l),
(480,98,o),
(556,230,o),
(556,365,cs),
(556,516,o),
(460,632,o),
(311,632,cs),
(155,632,o),
(58,506,o),
(58,284,cs),
(58,-203,l),
(132,-250,l)
);
}
);
width = 604;
},
{
layerId = "D419D424-3725-4B78-A608-932C6DF68265";
shapes = (
{
closed = 1;
nodes = (
(180,-250,l),
(157,30,ls),
(153,82,o),
(148,159,o),
(148,213,cs),
(148,430,o),
(231,484,o),
(334,484,cs),
(437,484,o),
(487,429,o),
(487,349,cs),
(487,239,o),
(390,174,o),
(249,134,c),
(249,125,l),
(325,0,l),
(484,71,o),
(564,189,o),
(564,344,cs),
(564,523,o),
(464,632,o),
(311,632,cs),
(149,632,o),
(48,511,o),
(48,269,cs),
(48,-191,l),
(170,-250,l)
);
}
);
width = 604;
}
);
metricLeft = "=u1E2A3*1.2";
metricRight = "=u1E2A3";
script = default;
subCategory = Other;
unicode = 123540;
},
{
category = Letter;
glyphname = u1E295;
lastChange = "2022-09-05 13:19:36 +0000";
layers = (
{
guides = (
{
angle = 90;
pos = (478,188);
}
);
layerId = "E40B9561-B6E0-4D94-A2F7-63596B9AF675";
shapes = (
{
closed = 1;
nodes = (
(386,255,o),
(474,335,o),
(474,445,cs),
(474,555,o),
(388,632,o),
(260,632,cs),
(131,632,o),
(43,551,o),
(43,439,cs),
(43,331,o),
(129,255,o),
(257,255,cs)
);
},
{
closed = 1;
nodes = (
(386,-250,o),
(474,-169,o),
(474,-57,cs),
(474,51,o),
(388,127,o),
(260,127,cs),
(131,127,o),
(43,47,o),
(43,-63,cs),
(43,-173,o),
(129,-250,o),
(257,-250,cs)
);
},
{
closed = 1;
nodes = (
(155,-164,o),
(99,-133,o),
(99,-69,cs),
(99,-1,o),
(160,45,o),
(271,45,cs),
(362,45,o),
(418,14,o),
(418,-51,cs),
(418,-118,o),
(357,-164,o),
(246,-164,cs)
);
},
{
closed = 1;
nodes = (
(297,94,l),
(297,284,l),
(221,284,l),
(221,94,l)
);
},
{
closed = 1;
nodes = (
(155,337,o),
(99,368,o),
(99,433,cs),
(99,500,o),
(160,546,o),
(271,546,cs),
(362,546,o),
(418,515,o),
(418,451,cs),
(418,383,o),
(357,337,o),
(246,337,cs)
);
}
);
width = 517;
},
{
guides = (
{
angle = 90;
pos = (465,188);
}
);
layerId = "D419D424-3725-4B78-A608-932C6DF68265";
shapes = (
{
closed = 1;
nodes = (
(397,230,o),
(494,318,o),
(494,441,cs),
(494,557,o),
(406,636,o),
(275,636,cs),
(134,636,o),
(36,544,o),
(36,421,cs),
(36,306,o),
(122,230,o),
(254,230,cs)
);
},
{
closed = 1;
nodes = (
(396,-250,o),
(494,-158,o),
(494,-35,cs),
(494,80,o),
(408,156,o),
(276,156,cs),
(133,156,o),
(36,68,o),
(36,-55,cs),
(36,-171,o),
(124,-250,o),
(255,-250,cs)
);
},
{
closed = 1;
nodes = (
(156,-116,o),
(116,-96,o),
(116,-56,cs),
(116,-3,o),
(187,32,o),
(295,32,cs),
(374,32,o),
(414,12,o),
(414,-28,cs),
(414,-81,o),
(342,-116,o),
(235,-116,cs)
);
},
{
closed = 1;
nodes = (
(323,96,l),
(323,288,l),
(207,288,l),
(207,96,l)
);
},
{
closed = 1;
nodes = (
(156,354,o),
(116,374,o),
(116,414,cs),
(116,467,o),
(188,502,o),
(295,502,cs),
(374,502,o),
(414,482,o),
(414,442,cs),
(414,389,o),
(343,354,o),
(235,354,cs)
);
}
);
width = 530;
}
);
metricLeft = "=u1E2A3*0.9";
metricRight = "=|";
script = default;
subCategory = Other;
unicode = 123541;
},
{
category = Letter;
glyphname = u1E296;
lastChange = "2021-12-16 15:11:45 +0000";
layers = (
{
layerId = "E40B9561-B6E0-4D94-A2F7-63596B9AF675";
shapes = (
{
closed = 1;
nodes = (
(149,555,l),
(73,587,l),
(73,33,l),
(141,-10,l),
(149,-10,l)
);
},
{
closed = 1;
nodes = (
(511,-10,l),
(519,-10,l),
(519,545,l),
(470,622,l),
(29,622,l),
(29,612,l),
(75,540,l),
(483,540,l),
(443,555,l),
(443,33,l)
);
}
);
width = 601;
},
{
layerId = "D419D424-3725-4B78-A608-932C6DF68265";
shapes = (
{
closed = 1;
nodes = (
(200,555,l),
(84,597,l),
(84,43,l),
(192,-10,l),
(200,-10,l)
);
},
{
closed = 1;
nodes = (
(573,-10,l),
(581,-10,l),
(581,505,l),
(515,622,l),
(24,622,l),
(24,612,l),
(90,500,l),
(561,500,l),
(465,565,l),
(465,43,l)
);
}
);
width = 649;
}
);
metricLeft = "=u1E2A3*0.6";
metricRight = "=u1E2AB";
script = default;
subCategory = Other;
unicode = 123542;
},
{
category = Letter;
glyphname = u1E297;
kernLeft = Toto_Na;
kernRight = Toto_Na;
lastChange = "2021-12-16 15:11:45 +0000";
layers = (
{
layerId = "E40B9561-B6E0-4D94-A2F7-63596B9AF675";
shapes = (
{
closed = 1;
nodes = (
(793,-10,o),
(872,82,o),
(872,220,cs),
(872,357,o),
(794,447,o),
(680,447,cs),
(566,447,o),
(486,356,o),
(486,217,cs),
(486,80,o),
(564,-10,o),
(678,-10,cs)
);
},
{
closed = 1;
nodes = (
(345,-10,o),
(424,82,o),
(424,220,cs),
(424,357,o),
(346,447,o),
(232,447,cs),
(118,447,o),
(38,356,o),
(38,217,cs),
(38,80,o),
(116,-10,o),
(230,-10,cs)
);
},
{
closed = 1;
nodes = (
(139,76,o),
(94,123,o),
(94,206,cs),
(94,302,o),
(153,361,o),
(244,361,cs),
(324,361,o),
(368,314,o),
(368,231,cs),
(368,135,o),
(310,76,o),
(218,76,cs)
);
},
{
closed = 1;
nodes = (
(587,76,o),
(542,123,o),
(542,206,cs),
(542,302,o),
(601,361,o),
(692,361,cs),
(772,361,o),
(816,314,o),
(816,231,cs),
(816,135,o),
(758,76,o),
(666,76,cs)
);
},
{
closed = 1;
nodes = (
(374,504,l),
(382,504,l),
(464,548,o),
(560,602,o),
(637,656,c),
(621,748,l),
(612,748,l),
(538,686,o),
(443,621,o),
(364,568,c)
);
}
);
width = 910;
},
{
layerId = "D419D424-3725-4B78-A608-932C6DF68265";
shapes = (
{
closed = 1;
nodes = (
(817,-10,o),
(898,90,o),
(898,232,cs),
(898,371,o),
(820,458,o),
(701,458,cs),
(574,458,o),
(492,359,o),
(492,216,cs),
(492,78,o),
(569,-10,o),
(689,-10,cs)
);
},
{
closed = 1;
nodes = (
(357,-10,o),
(438,90,o),
(438,232,cs),
(438,371,o),
(360,458,o),
(241,458,cs),
(114,458,o),
(32,359,o),
(32,216,cs),
(32,78,o),
(109,-10,o),
(229,-10,cs)
);
},
{
closed = 1;
nodes = (
(144,126,o),
(112,157,o),
(112,211,cs),
(112,279,o),
(165,322,o),
(252,322,cs),
(326,322,o),
(358,291,o),
(358,237,cs),
(358,169,o),
(305,126,o),
(218,126,cs)
);
},
{
closed = 1;
nodes = (
(604,126,o),
(572,157,o),
(572,211,cs),
(572,279,o),
(625,322,o),
(712,322,cs),
(786,322,o),
(818,291,o),
(818,237,cs),
(818,169,o),
(765,126,o),
(678,126,cs)
);
},
{
closed = 1;
nodes = (
(374,504,l),
(382,504,l),
(479,531,o),
(576,563,o),
(669,604,c),
(643,748,l),
(634,748,l),
(550,684,o),
(452,626,o),
(364,575,c)
);
}
);
width = 930;
}
);
metricLeft = "=u1E2A3*0.8";
metricRight = "=|";
script = default;
subCategory = Other;
unicode = 123543;
},
{
category = Letter;
glyphname = u1E298;
kernLeft = Toto_NGA;
kernRight = Toto_NGA;
lastChange = "2021-12-16 15:11:45 +0000";
layers = (
{
layerId = "E40B9561-B6E0-4D94-A2F7-63596B9AF675";
shapes = (
{
closed = 1;
nodes = (
(409,-10,o),
(503,84,o),
(503,220,cs),
(503,355,o),
(411,447,o),
(274,447,cs),
(137,447,o),
(43,353,o),
(43,217,cs),
(43,82,o),
(135,-10,o),
(272,-10,cs)
);
},
{
closed = 1;
nodes = (
(156,78,o),
(99,126,o),
(99,206,cs),
(99,298,o),
(172,359,o),
(288,359,cs),
(389,359,o),
(447,311,o),
(447,231,cs),
(447,139,o),
(373,78,o),
(258,78,cs)
);
},
{
closed = 1;
nodes = (
(169,504,l),
(177,504,l),
(259,548,o),
(355,602,o),
(432,656,c),
(416,748,l),
(407,748,l),
(333,686,o),
(238,621,o),
(159,568,c)
);
}
);
width = 546;
},
{
layerId = "D419D424-3725-4B78-A608-932C6DF68265";
shapes = (
{
closed = 1;
nodes = (
(424,-10,o),
(520,93,o),
(520,232,cs),
(520,369,o),
(428,458,o),
(285,458,cs),
(132,458,o),
(36,355,o),
(36,217,cs),
(36,81,o),
(128,-10,o),
(271,-10,cs)
);
},
{
closed = 1;
nodes = (
(166,126,o),
(116,152,o),
(116,208,cs),
(116,278,o),
(193,322,o),
(304,322,cs),
(390,322,o),
(440,296,o),
(440,240,cs),
(440,170,o),
(364,126,o),
(252,126,cs)
);
},
{
closed = 1;
nodes = (
(163,504,l),
(171,504,l),
(268,531,o),
(365,564,o),
(458,604,c),
(432,748,l),
(423,748,l),
(339,684,o),
(241,626,o),
(153,575,c)
);
}
);
width = 556;
}
);
metricLeft = "=u1E2A3*0.9";
metricRight = "=|";
script = default;
subCategory = Other;
unicode = 123544;
},
{
category = Letter;
glyphname = u1E299;
kernLeft = Toto_SA;
kernRight = Toto_SA;
lastChange = "2021-12-16 15:11:45 +0000";
layers = (
{
layerId = "E40B9561-B6E0-4D94-A2F7-63596B9AF675";
shapes = (
{
closed = 1;
nodes = (
(305,-10,o),
(395,117,o),
(402,285,c),
(374,286,l),
(383,95,o),
(456,-10,o),
(566,-10,cs),
(642,-10,o),
(706,39,o),
(733,101,c),
(690,180,l),
(680,180,l),
(653,117,o),
(610,82,o),
(557,82,cs),
(443,82,o),
(418,233,o),
(418,399,cs),
(418,446,o),
(420,518,o),
(423,580,c),
(345,632,l),
(335,632,l),
(338,586,o),
(339,546,o),
(339,487,cs),
(339,271,o),
(326,82,o),
(182,82,cs),
(133,82,o),
(102,103,o),
(67,160,c),
(24,128,l),
(69,32,o),
(126,-10,o),
(192,-10,cs)
);
}
);
width = 757;
},
{
layerId = "D419D424-3725-4B78-A608-932C6DF68265";
shapes = (
{
closed = 1;
nodes = (
(314,-10,o),
(394,85,o),
(411,234,c),
(397,245,l),
(404,86,o),
(482,-10,o),
(594,-10,cs),
(661,-10,o),
(727,26,o),
(755,77,c),
(698,210,l),
(688,210,l),
(657,164,o),
(618,128,o),
(561,128,cs),
(463,128,o),
(449,235,o),
(449,409,cs),
(449,453,o),
(450,518,o),
(452,560,c),
(335,636,l),
(325,636,l),
(329,592,o),
(331,541,o),
(331,464,cs),
(331,273,o),
(319,128,o),
(179,128,cs),
(134,128,o),
(102,144,o),
(67,181,c),
(20,140,l),
(63,40,o),
(124,-10,o),
(205,-10,cs)
);
}
);
width = 775;
}
);
metricLeft = "=u1E2A3*0.5";
metricRight = "=|";
script = default;
subCategory = Other;
unicode = 123545;
},
{
category = Letter;
glyphname = u1E29A;
kernLeft = Toto_Ra;
lastChange = "2021-12-16 15:11:45 +0000";
layers = (
{
layerId = "E40B9561-B6E0-4D94-A2F7-63596B9AF675";
shapes = (
{
closed = 1;
nodes = (
(548,-5,l),
(548,587,l),
(480,632,l),
(470,632,l),
(359,542,o),
(220,450,o),
(24,340,c),
(24,331,l),
(69,257,l),
(233,191,o),
(410,99,o),
(538,-10,c)
);
},
{
closed = 1;
nodes = (
(509,84,l),
(396,181,o),
(248,260,o),
(118,318,c),
(113,300,l),
(268,388,o),
(410,477,o),
(523,565,c),
(472,574,l),
(472,62,l)
);
}
);
width = 630;
},
{
layerId = "D419D424-3725-4B78-A608-932C6DF68265";
shapes = (
{
closed = 1;
nodes = (
(590,-5,l),
(590,571,l),
(486,636,l),
(476,636,l),
(365,554,o),
(198,460,o),
(20,370,c),
(20,361,l),
(94,236,l),
(264,179,o),
(447,90,o),
(580,-10,c)
);
},
{
closed = 1;
nodes = (
(526,96,l),
(418,190,o),
(272,278,o),
(138,326,c),
(117,281,l),
(280,358,o),
(432,443,o),
(555,536,c),
(474,578,l),
(474,89,l)
);
}
);
width = 658;
}
);
metricLeft = "=u1E2A3*0.5";
metricRight = "=u1E2AB";
script = default;
subCategory = Other;
unicode = 123546;
},
{
category = Letter;
glyphname = u1E29B;
kernLeft = Totot_Ya;
kernRight = Totot_Ya;
lastChange = "2021-12-16 15:11:45 +0000";
layers = (
{
layerId = "E40B9561-B6E0-4D94-A2F7-63596B9AF675";
shapes = (
{
closed = 1;
nodes = (
(284,-10,l),
(352,239,o),
(432,424,o),
(504,546,c),
(433,589,l),
(360,457,o),
(289,278,o),
(240,79,c),
(262,84,l),
(217,175,o),
(149,274,o),
(61,344,c),
(24,310,l),
(98,235,o),
(161,132,o),
(201,35,c),
(275,-10,l)
);
},
{
closed = 1;
nodes = (
(581,540,l),
(581,550,l),
(535,622,l),
(95,622,l),
(95,612,l),
(141,540,l)
);
}
);
width = 595;
},
{
layerId = "D419D424-3725-4B78-A608-932C6DF68265";
shapes = (
{
closed = 1;
nodes = (
(323,-10,l),
(397,228,o),
(472,413,o),
(542,538,c),
(417,596,l),
(349,457,o),
(282,271,o),
(232,79,c),
(289,112,l),
(240,199,o),
(161,296,o),
(63,363,c),
(20,324,l),
(97,248,o),
(170,145,o),
(203,43,c),
(314,-10,l)
);
},
{
closed = 1;
nodes = (
(627,500,l),
(627,510,l),
(561,622,l),
(107,622,l),
(107,612,l),
(173,500,l)
);
}
);
width = 639;
}
);
metricLeft = "=u1E2A3*0.5";
metricRight = "=u1E2A3*0.3";
script = default;
subCategory = Other;
unicode = 123547;
},
{
category = Letter;
glyphname = u1E29C;
kernLeft = Toto_IU;
kernRight = Toto_IU;
lastChange = "2023-12-27 09:35:26 +0000";
layers = (
{
layerId = "E40B9561-B6E0-4D94-A2F7-63596B9AF675";
shapes = (
{
closed = 1;
nodes = (
(562,-200,l),
(601,-113,l),
(547,-50,o),
(482,12,o),
(418,71,c),
(394,17,l),
(532,87,o),
(618,177,o),
(618,326,cs),
(618,492,o),
(509,632,o),
(335,632,cs),
(166,632,o),
(48,501,o),
(48,306,cs),
(48,177,o),
(100,91,o),
(172,91,cs),
(208,91,o),
(236,110,o),
(236,150,cs),
(236,166,o),
(231,182,o),
(221,193,c),
(121,193,l),
(121,164,l),
(153,178,l),
(119,192,o),
(104,242,o),
(104,298,cs),
(104,441,o),
(203,540,o),
(349,540,cs),
(484,540,o),
(562,456,o),
(562,337,cs),
(562,206,o),
(463,141,o),
(332,92,c),
(332,83,l),
(412,-11,o),
(487,-107,o),
(554,-200,c)
);
},
{
pos = (249,54);
ref = "breathbottom-I.comp";
}
);
width = 666;
},
{
background = {
shapes = (
{
pos = (251,0);
ref = "breathbottom-I.comp";
}
);
};
layerId = "D419D424-3725-4B78-A608-932C6DF68265";
shapes = (
{
closed = 1;
nodes = (
(554,-200,l),
(642,-75,l),
(581,-13,o),
(495,53,o),
(421,102,c),
(413,10,l),
(567,96,o),
(644,185,o),
(644,339,cs),
(644,532,o),
(519,632,o),
(350,632,cs),
(150,632,o),
(40,491,o),
(40,298,cs),
(40,160,o),
(96,71,o),
(179,71,cs),
(230,71,o),
(270,104,o),
(270,172,cs),
(270,203,o),
(262,224,o),
(246,243,c),
(84,243,l),
(92,165,l),
(163,196,l),
(141,207,o),
(124,243,o),
(124,292,cs),
(124,411,o),
(226,486,o),
(375,486,cs),
(486,486,o),
(560,444,o),
(560,348,cs),
(560,241,o),
(467,191,o),
(317,138,c),
(317,129,l),
(393,29,o),
(470,-80,o),
(546,-200,c)
);
},
{
pos = (242,51);
ref = "breathbottom-I.comp";
}
);
width = 684;
}
);
metricLeft = u1E2A3;
metricRight = u1E2A3;
script = default;
subCategory = Other;
unicode = 123548;
},
{
category = Letter;
glyphname = u1E29D;
kernRight = Toto_JA;
lastChange = "2022-09-05 13:19:55 +0000";
layers = (
{
layerId = "E40B9561-B6E0-4D94-A2F7-63596B9AF675";
shapes = (
{
closed = 1;
nodes = (
(366,-250,o),
(443,-185,o),
(480,-59,c),
(446,-29,l),
(408,-120,o),
(342,-164,o),
(241,-164,cs),
(155,-164,o),
(99,-132,o),
(99,-70,cs),
(99,-1,o),
(166,45,o),
(264,45,cs),
(382,45,o),
(416,-25,o),
(448,-91,cs),
(478,-154,o),
(508,-214,o),
(588,-214,cs),
(624,-214,o),
(664,-202,o),
(687,-181,c),
(648,-108,l),
(641,-108,l),
(623,-124,o),
(603,-132,o),
(582,-132,cs),
(536,-132,o),
(515,-92,o),
(484,-32,cs),
(446,43,o),
(398,131,o),
(262,131,cs),
(128,131,o),
(43,49,o),
(43,-62,cs),
(43,-173,o),
(130,-250,o),
(253,-250,cs)
);
},
{
closed = 1;
nodes = (
(386,251,o),
(474,333,o),
(474,445,cs),
(474,555,o),
(388,632,o),
(260,632,cs),
(131,632,o),
(43,551,o),
(43,439,cs),
(43,329,o),
(129,251,o),
(257,251,cs)
);
},
{
closed = 1;
nodes = (
(155,337,o),
(99,368,o),
(99,433,cs),
(99,500,o),
(160,546,o),
(271,546,cs),
(361,546,o),
(418,515,o),
(418,451,cs),
(418,383,o),
(356,337,o),
(246,337,cs)
);
}
);
width = 547;
},
{
layerId = "D419D424-3725-4B78-A608-932C6DF68265";
shapes = (
{
closed = 1;
nodes = (
(374,-250,o),
(456,-180,o),
(494,-47,c),
(450,-22,l),
(408,-89,o),
(335,-116,o),
(235,-116,cs),
(156,-116,o),
(116,-96,o),
(116,-56,cs),
(116,-3,o),
(187,32,o),
(279,32,cs),
(374,32,o),
(409,-5,o),
(449,-91,cs),
(491,-182,o),
(541,-224,o),
(610,-224,cs),
(643,-224,o),
(683,-212,o),
(706,-191,c),
(656,-68,l),
(649,-68,l),
(633,-83,o),
(614,-94,o),
(591,-94,cs),
(561,-94,o),
(532,-76,o),
(494,-3,cs),
(437,106,o),
(379,161,o),
(274,161,cs),
(134,161,o),
(36,71,o),
(36,-55,cs),
(36,-171,o),
(124,-250,o),
(253,-250,cs)
);
},
{
closed = 1;
nodes = (
(393,225,o),
(494,315,o),
(494,441,cs),
(494,557,o),
(406,636,o),
(277,636,cs),
(138,636,o),
(36,544,o),
(36,420,cs),
(36,303,o),
(123,225,o),
(253,225,cs)
);
},
{
closed = 1;
nodes = (
(156,354,o),
(116,374,o),
(116,414,cs),
(116,467,o),
(188,502,o),
(295,502,cs),
(374,502,o),
(414,482,o),
(414,442,cs),
(414,389,o),
(343,354,o),
(235,354,cs)
);
}
);
width = 560;
}
);
metricLeft = "=u1E2A3*0.9";
metricWidth = "=u1E295+30";
script = default;
subCategory = Other;
unicode = 123549;
},
{
category = Letter;
glyphname = u1E29E;
lastChange = "2021-12-16 15:11:45 +0000";
layers = (
{
layerId = "E40B9561-B6E0-4D94-A2F7-63596B9AF675";
shapes = (
{
closed = 1;
nodes = (
(227,-10,o),
(255,9,o),
(255,49,cs),
(255,65,o),
(250,81,o),
(240,92,c),
(140,92,l),
(150,74,l),
(167,83,l),
(132,122,o),
(114,195,o),
(114,277,cs),
(114,448,o),
(198,540,o),
(322,540,cs),
(435,540,o),
(485,468,o),
(485,298,cs),
(485,239,o),
(480,156,o),
(468,37,c),
(542,-10,l),
(550,-10,l),
(550,306,ls),
(550,524,o),
(466,632,o),
(309,632,cs),
(152,632,o),
(58,512,o),
(58,286,cs),
(58,138,o),
(97,-10,o),
(191,-10,cs)
);
}
);
width = 608;
},
{
layerId = "D419D424-3725-4B78-A608-932C6DF68265";
shapes = (
{
closed = 1;
nodes = (
(240,-10,o),
(285,21,o),
(285,91,cs),
(285,121,o),
(277,143,o),
(261,162,c),
(99,162,l),
(113,101,l),
(178,132,l),
(151,151,o),
(132,207,o),
(132,274,cs),
(132,406,o),
(202,490,o),
(328,490,cs),
(432,490,o),
(480,435,o),
(480,286,cs),
(480,228,o),
(473,152,o),
(456,49,c),
(572,-10,l),
(580,-10,l),
(580,307,ls),
(580,519,o),
(481,636,o),
(311,636,cs),
(139,636,o),
(48,515,o),
(48,278,cs),
(48,102,o),
(98,-10,o),
(190,-10,cs)
);
}
);
width = 628;
}
);
metricLeft = "=u1E2A3*1.2";
metricRight = "=u1E2A3*1.2";
script = default;
subCategory = Other;
unicode = 123550;
},
{
category = Letter;
glyphname = u1E29F;
kernLeft = Toto_Ra;
kernRight = Toto_Ra;
lastChange = "2021-12-16 15:11:45 +0000";
layers = (
{
layerId = "E40B9561-B6E0-4D94-A2F7-63596B9AF675";
shapes = (
{
closed = 1;
nodes = (
(513,36,l),
(407,155,o),
(255,250,o),
(118,318,c),
(113,300,l),
(269,388,o),
(411,477,o),
(524,565,c),
(481,632,l),
(471,632,l),
(360,542,o),
(221,450,o),
(24,340,c),
(24,331,l),
(69,257,l),
(214,191,o),
(371,99,o),
(483,-10,c)
);
}
);
width = 560;
},
{
layerId = "D419D424-3725-4B78-A608-932C6DF68265";
shapes = (
{
closed = 1;
nodes = (
(545,42,l),
(446,151,o),
(273,271,o),
(138,326,c),
(117,281,l),
(280,358,o),
(433,443,o),
(556,536,c),
(486,636,l),
(476,636,l),
(365,554,o),
(198,460,o),
(20,370,c),
(20,361,l),
(94,236,l),
(252,177,o),
(402,88,o),
(508,-10,c)
);
}
);
width = 586;
}
);
metricLeft = "=u1E2A3*0.5";
metricRight = "=u1E2A3*0.75";
script = default;
subCategory = Other;
unicode = 123551;
},
{
category = Letter;
glyphname = u1E2A0;
kernLeft = Toto_IU;
kernRight = Toto_IU;
lastChange = "2021-12-16 15:11:45 +0000";
layers = (
{
layerId = "E40B9561-B6E0-4D94-A2F7-63596B9AF675";
shapes = (
{
closed = 1;
nodes = (
(552,-250,l),
(591,-163,l),
(543,-100,o),
(472,-25,o),
(408,41,c),
(384,-13,l),
(535,64,o),
(618,174,o),
(618,325,cs),
(618,493,o),
(509,632,o),
(335,632,cs),
(166,632,o),
(48,501,o),
(48,306,cs),
(48,177,o),
(100,91,o),
(172,91,cs),
(208,91,o),
(236,110,o),
(236,150,cs),
(236,166,o),
(231,182,o),
(221,193,c),
(121,193,l),
(121,154,l),
(153,178,l),
(119,192,o),
(104,242,o),
(104,298,cs),
(104,441,o),
(203,540,o),
(349,540,cs),
(484,540,o),
(562,457,o),
(562,336,cs),
(562,201,o),
(465,117,o),
(322,62,c),
(322,53,l),
(403,-51,o),
(477,-152,o),
(544,-250,c)
);
}
);
width = 666;
},
{
layerId = "D419D424-3725-4B78-A608-932C6DF68265";
shapes = (
{
closed = 1;
nodes = (
(550,-250,l),
(642,-118,l),
(574,-48,o),
(501,17,o),
(421,79,c),
(413,-10,l),
(567,76,o),
(644,186,o),
(644,341,cs),
(644,535,o),
(519,636,o),
(350,636,cs),
(151,636,o),
(40,495,o),
(40,299,cs),
(40,160,o),
(96,71,o),
(179,71,cs),
(230,71,o),
(270,104,o),
(270,172,cs),
(270,203,o),
(262,224,o),
(246,243,c),
(84,243,l),
(92,165,l),
(163,196,l),
(141,207,o),
(124,243,o),
(124,292,cs),
(124,413,o),
(223,490,o),
(372,490,cs),
(482,490,o),
(560,447,o),
(560,349,cs),
(560,242,o),
(467,171,o),
(317,118,c),
(317,109,l),
(399,-11,o),
(475,-130,o),
(542,-250,c)
);
}
);
width = 684;
}
);
metricLeft = u1E2A3;
metricRight = u1E2A3;
script = default;
subCategory = Other;
unicode = 123552;
},
{
category = Letter;
glyphname = u1E2A1;
kernLeft = Toto_I;
kernRight = Toto_I;
lastChange = "2021-12-16 15:11:45 +0000";
layers = (
{
anchors = (
{
name = bottom;
pos = (184,0);
},
{
name = top;
pos = (184,622);
}
);
layerId = "E40B9561-B6E0-4D94-A2F7-63596B9AF675";
shapes = (
{
closed = 1;
nodes = (
(301,-250,l),
(340,-163,l),
(292,-100,o),
(221,-25,o),
(157,41,c),
(174,5,l),
(185,5,ls),
(330,5,o),
(408,73,o),
(408,162,cs),
(408,247,o),
(337,320,o),
(214,340,c),
(223,307,l),
(326,323,o),
(392,368,o),
(392,447,cs),
(392,550,o),
(280,632,o),
(38,632,c),
(38,622,l),
(89,538,l),
(274,538,o),
(336,499,o),
(336,447,cs),
(336,404,o),
(294,360,o),
(155,360,cs),
(134,360,o),
(102,361,o),
(70,364,c),
(70,354,l),
(117,276,l),
(257,273,o),
(352,230,o),
(352,165,cs),
(352,106,o),
(276,90,o),
(198,90,cs),
(154,90,o),
(89,95,o),
(44,103,c),
(44,94,l),
(135,-27,o),
(219,-139,o),
(293,-250,c)
);
}
);
width = 456;
},
{
anchors = (
{
name = bottom;
pos = (180,0);
},
{
name = top;
pos = (203,622);
}
);
layerId = "D419D424-3725-4B78-A608-932C6DF68265";
shapes = (
{
closed = 1;
nodes = (
(314,-250,l),
(406,-118,l),
(348,-64,o),
(253,3,o),
(161,64,c),
(193,5,l),
(215,5,ls),
(352,5,o),
(449,74,o),
(449,172,cs),
(449,253,o),
(380,324,o),
(253,343,c),
(262,300,l),
(346,315,o),
(433,339,o),
(433,432,cs),
(433,530,o),
(338,636,o),
(32,636,c),
(32,626,l),
(113,494,l),
(284,492,o),
(349,471,o),
(349,427,cs),
(349,400,o),
(323,369,o),
(195,369,cs),
(164,369,o),
(115,371,o),
(75,376,c),
(75,366,l),
(138,257,l),
(304,249,o),
(365,223,o),
(365,184,cs),
(365,148,o),
(315,129,o),
(220,129,cs),
(171,129,o),
(97,134,o),
(46,142,c),
(46,133,l),
(143,5,o),
(229,-122,o),
(306,-250,c)
);
}
);
width = 489;
}
);
metricLeft = "=u1E2A3*0.8";
metricRight = u1E2A3;
script = default;
subCategory = Other;
unicode = 123553;
},
{
category = Letter;
glyphname = u1E2A3;
kernLeft = Toto_IU;
kernRight = Toto_IU;
lastChange = "2021-12-16 15:11:45 +0000";
layers = (
{
anchors = (
{
name = bottom;
pos = (328,0);
},
{
name = top;
pos = (328,622);
}
);
layerId = "E40B9561-B6E0-4D94-A2F7-63596B9AF675";
shapes = (
{
closed = 1;
nodes = (
(500,-10,o),
(618,123,o),
(618,313,cs),
(618,502,o),
(503,632,o),
(336,632,cs),
(166,632,o),
(48,499,o),
(48,309,cs),
(48,120,o),
(163,-10,o),
(330,-10,cs)
);
},
{
closed = 1;
nodes = (
(184,82,o),
(104,162,o),
(104,295,cs),
(104,442,o),
(202,540,o),
(350,540,cs),
(482,540,o),
(562,460,o),
(562,327,cs),
(562,180,o),
(463,82,o),
(316,82,cs)
);
},
{
closed = 1;
nodes = (
(369,247,o),
(394,274,o),
(394,312,cs),
(394,350,o),
(370,375,o),
(334,375,cs),
(297,375,o),
(272,348,o),
(272,310,cs),
(272,272,o),
(296,247,o),
(332,247,cs)
);
}
);
width = 666;
},
{
anchors = (
{
name = bottom;
pos = (339,0);
},
{
name = top;
pos = (339,622);
}
);
layerId = "D419D424-3725-4B78-A608-932C6DF68265";
shapes = (
{
closed = 1;
nodes = (
(532,-10,o),
(644,126,o),
(644,319,cs),
(644,525,o),
(520,636,o),
(344,636,cs),
(151,636,o),
(40,500,o),
(40,309,cs),
(40,105,o),
(163,-10,o),
(340,-10,cs)
);
},
{
closed = 1;
nodes = (
(198,136,o),
(124,190,o),
(124,292,cs),
(124,413,o),
(229,490,o),
(369,490,cs),
(486,490,o),
(560,436,o),
(560,334,cs),
(560,213,o),
(455,136,o),
(315,136,cs)
);
},
{
closed = 1;
nodes = (
(393,223,o),
(429,258,o),
(429,314,cs),
(429,370,o),
(393,403,o),
(343,403,cs),
(291,403,o),
(255,368,o),
(255,312,cs),
(255,256,o),
(290,223,o),
(341,223,cs)
);
}
);
width = 684;
}
);
metricRight = "=|";
script = default;
subCategory = Other;
unicode = 123555;
},
{
category = Letter;
glyphname = u1E2A5;
lastChange = "2021-12-16 15:11:45 +0000";
layers = (
{
anchors = (
{
name = top;
pos = (290,620);
}
);
layerId = "E40B9561-B6E0-4D94-A2F7-63596B9AF675";
shapes = (
{
closed = 1;
nodes = (
(340,263,o),
(365,290,o),
(365,328,cs),
(365,366,o),
(341,391,o),
(305,391,cs),
(268,391,o),
(243,364,o),
(243,326,cs),
(243,288,o),
(267,263,o),
(303,263,cs)
);
},
{
angle = 180;
pos = (608,622);
ref = u1E29E;
}
);
width = 608;
},
{
anchors = (
{
name = top;
pos = (295,620);
}
);
layerId = "D419D424-3725-4B78-A608-932C6DF68265";
shapes = (
{
closed = 1;
nodes = (
(369,231,o),
(405,266,o),
(405,322,cs),
(405,378,o),
(369,411,o),
(319,411,cs),
(267,411,o),
(231,376,o),
(231,320,cs),
(231,264,o),
(266,231,o),
(317,231,cs)
);
},
{
angle = 180;
pos = (628,626);
ref = u1E29E;
}
);
width = 628;
}
);
metricLeft = "=|u1E29E";
metricRight = "=|u1E29E";
script = default;
subCategory = Other;
unicode = 123557;
},
{
category = Letter;
glyphname = u1E2A6;
lastChange = "2021-12-16 15:11:45 +0000";
layers = (
{
anchors = (
{
name = bottom;
pos = (253,0);
},
{
name = top;
pos = (253,712);
}
);
layerId = "E40B9561-B6E0-4D94-A2F7-63596B9AF675";
shapes = (
{
closed = 1;
nodes = (
(400,-10,o),
(498,74,o),
(498,248,cs),
(498,434,o),
(391,602,o),
(197,732,c),
(189,732,l),
(160,642,l),
(296,563,o),
(374,475,o),
(423,358,c),
(428,368,l),
(388,418,o),
(328,445,o),
(259,445,cs),
(128,445,o),
(38,352,o),
(38,217,cs),
(38,82,o),
(128,-10,o),
(267,-10,cs)
);
},
{
closed = 1;
nodes = (
(152,78,o),
(94,126,o),
(94,206,cs),
(94,298,o),
(168,359,o),
(283,359,cs),
(385,359,o),
(442,311,o),
(442,231,cs),
(442,139,o),
(369,78,o),
(253,78,cs)
);
}
);
width = 541;
},
{
anchors = (
{
name = bottom;
pos = (252,0);
},
{
name = top;
pos = (252,712);
}
);
layerId = "D419D424-3725-4B78-A608-932C6DF68265";
shapes = (
{
closed = 1;
nodes = (
(408,-10,o),
(516,76,o),
(516,252,cs),
(516,445,o),
(385,630,o),
(179,732,c),
(171,732,l),
(119,595,l),
(277,536,o),
(377,457,o),
(426,361,c),
(448,355,l),
(404,411,o),
(346,442,o),
(266,442,cs),
(127,442,o),
(32,345,o),
(32,211,cs),
(32,81,o),
(122,-10,o),
(267,-10,cs)
);
},
{
closed = 1;
nodes = (
(163,126,o),
(114,152,o),
(114,205,cs),
(114,272,o),
(190,312,o),
(302,312,cs),
(385,312,o),
(434,289,o),
(434,236,cs),
(434,170,o),
(358,126,o),
(246,126,cs)
);
}
);
width = 552;
}
);
metricLeft = "=u1E2A3*0.8";
metricRight = "=u1E2A3*0.9";
script = default;
subCategory = Other;
unicode = 123558;
},
{
category = Letter;
glyphname = u1E2A8;
kernRight = Toto_IU;
lastChange = "2021-12-16 15:11:45 +0000";
layers = (
{
anchors = (
{
name = bottom;
pos = (269,0);
},
{
name = top;
pos = (269,622);
}
);
layerId = "E40B9561-B6E0-4D94-A2F7-63596B9AF675";
shapes = (
{
closed = 1;
nodes = (
(438,-12,o),
(549,118,o),
(549,310,cs),
(549,501,o),
(438,630,o),
(273,630,cs),
(189,630,o),
(110,598,o),
(53,541,c),
(53,531,l),
(104,470,l),
(157,516,o),
(217,538,o),
(287,538,cs),
(417,538,o),
(493,459,o),
(493,325,cs),
(493,176,o),
(400,80,o),
(257,80,cs),
(181,80,o),
(117,105,o),
(70,153,c),
(38,108,l),
(98,29,o),
(178,-12,o),
(273,-12,cs)
);
}
);
width = 597;
},
{
anchors = (
{
name = bottom;
pos = (279,0);
},
{
name = top;
pos = (279,622);
}
);
layerId = "D419D424-3725-4B78-A608-932C6DF68265";
shapes = (
{
closed = 1;
nodes = (
(461,-10,o),
(576,121,o),
(576,319,cs),
(576,512,o),
(465,636,o),
(293,636,cs),
(197,636,o),
(110,598,o),
(44,528,c),
(44,518,l),
(122,416,l),
(178,465,o),
(245,490,o),
(319,490,cs),
(430,490,o),
(492,435,o),
(492,336,cs),
(492,215,o),
(398,136,o),
(255,136,cs),
(177,136,o),
(116,160,o),
(73,197,c),
(32,147,l),
(87,50,o),
(178,-10,o),
(289,-10,cs)
);
}
);
width = 616;
}
);
metricLeft = "=u1E2A3*0.8";
metricRight = u1E2A3;
script = default;
subCategory = Other;
unicode = 123560;
},
{
category = Letter;
glyphname = u1E2AA;
kernLeft = Toto_TA;
kernRight = Toto_O;
lastChange = "2021-12-16 15:11:45 +0000";
layers = (
{
anchors = (
{
name = top;
pos = (263,622);
}
);
layerId = "E40B9561-B6E0-4D94-A2F7-63596B9AF675";
shapes = (
{
closed = 1;
nodes = (
(202,-108,l),
(396,24,o),
(503,200,o),
(503,385,cs),
(503,555,o),
(406,632,o),
(277,632,cs),
(137,632,o),
(43,538,o),
(43,403,cs),
(43,268,o),
(136,177,o),
(260,177,cs),
(331,177,o),
(388,207,o),
(427,254,c),
(424,264,l),
(376,148,o),
(299,60,o),
(165,-18,c),
(194,-108,l)
);
},
{
closed = 1;
nodes = (
(156,263,o),
(99,311,o),
(99,391,cs),
(99,483,o),
(172,544,o),
(288,544,cs),
(390,544,o),
(447,496,o),
(447,416,cs),
(447,324,o),
(374,263,o),
(258,263,cs)
);
}
);
width = 541;
},
{
anchors = (
{
name = top;
pos = (274,622);
}
);
layerId = "D419D424-3725-4B78-A608-932C6DF68265";
shapes = (
{
closed = 1;
nodes = (
(179,-108,l),
(383,-7,o),
(520,185,o),
(520,377,cs),
(520,534,o),
(429,636,o),
(287,636,cs),
(143,636,o),
(36,531,o),
(36,393,cs),
(36,265,o),
(128,182,o),
(265,182,cs),
(346,182,o),
(404,213,o),
(448,269,c),
(426,263,l),
(377,167,o),
(277,88,o),
(119,29,c),
(171,-108,l)
);
},
{
closed = 1;
nodes = (
(167,312,o),
(118,335,o),
(118,388,cs),
(118,455,o),
(195,500,o),
(304,500,cs),
(389,500,o),
(438,473,o),
(438,419,cs),
(438,352,o),
(362,312,o),
(250,312,cs)
);
}
);
width = 552;
}
);
metricLeft = "=|u1E2A6";
metricRight = "=|u1E2A6";
script = default;
subCategory = Other;
unicode = 123562;
},
{
category = Letter;
glyphname = u1E2AB;
lastChange = "2021-12-16 15:11:45 +0000";
layers = (
{
anchors = (
{
name = bottom;
pos = (305,0);
},
{
name = top;
pos = (305,622);
}
);
layerId = "E40B9561-B6E0-4D94-A2F7-63596B9AF675";
shapes = (
{
closed = 1;
nodes = (
(559,-10,l),
(559,589,l),
(491,632,l),
(483,632,l),
(483,35,l),
(551,-10,l)
);
},
{
closed = 1;
nodes = (
(158,-10,l),
(158,587,l),
(90,632,l),
(82,632,l),
(82,33,l),
(150,-10,l)
);
},
{
closed = 1;
nodes = (
(499,275,l),
(499,357,l),
(146,357,l),
(146,275,l)
);
}
);
width = 641;
},
{
anchors = (
{
name = bottom;
pos = (289,0);
},
{
name = top;
pos = (289,622);
}
);
layerId = "D419D424-3725-4B78-A608-932C6DF68265";
shapes = (
{
closed = 1;
nodes = (
(590,-10,l),
(590,583,l),
(482,636,l),
(474,636,l),
(474,43,l),
(582,-10,l)
);
},
{
closed = 1;
nodes = (
(184,-10,l),
(184,583,l),
(76,636,l),
(68,636,l),
(68,43,l),
(176,-10,l)
);
},
{
closed = 1;
nodes = (
(519,255,l),
(519,377,l),
(130,377,l),
(130,255,l)
);
}
);
width = 658;
}
);
metricLeft = "=u1E2A3*1.7";
metricRight = "=|";
script = default;
subCategory = Other;
unicode = 123563;
},
{
category = Letter;
glyphname = u1E2AD;
kernLeft = Toto_A;
kernRight = Toto_A;
lastChange = "2021-12-16 15:11:45 +0000";
layers = (
{
anchors = (
{
name = top;
pos = (310,622);
}
);
layerId = "E40B9561-B6E0-4D94-A2F7-63596B9AF675";
shapes = (
{
closed = 1;
nodes = (
(90,-10,l),
(98,-10,l),
(186,142,o),
(281,337,o),
(349,543,c),
(324,538,l),
(382,348,o),
(475,137,o),
(588,-10,c),
(634,20,l),
(531,174,o),
(441,388,o),
(385,587,c),
(311,632,l),
(302,632,l),
(210,372,o),
(109,173,o),
(25,33,c)
);
}
);
width = 659;
},
{
anchors = (
{
name = top;
pos = (338,622);
}
);
layerId = "D419D424-3725-4B78-A608-932C6DF68265";
shapes = (
{
closed = 1;
nodes = (
(137,-10,l),
(145,-10,l),
(233,143,o),
(329,340,o),
(397,547,c),
(331,514,l),
(394,332,o),
(494,130,o),
(620,-10,c),
(673,24,l),
(570,176,o),
(475,380,o),
(425,583,c),
(314,636,l),
(305,636,l),
(210,381,o),
(106,185,o),
(20,48,c)
);
}
);
width = 693;
}
);
metricRight = "=|";
script = default;
subCategory = Other;
unicode = 123565;
},
{
category = Mark;
glyphname = u1E2AE;
lastChange = "2021-12-16 15:11:45 +0000";
layers = (
{
anchors = (
{
name = _top;
pos = (158,620);
},
{
name = top;
pos = (158,920);
}
);
layerId = "E40B9561-B6E0-4D94-A2F7-63596B9AF675";
shapes = (
{
closed = 1;
nodes = (
(60,706,l),
(68,706,l),
(150,741,o),
(245,785,o),
(322,828,c),
(306,920,l),
(297,920,l),
(223,868,o),
(129,814,o),
(50,770,c)
);
}
);
width = 372;
},
{
anchors = (
{
name = _top;
pos = (170,620);
},
{
name = top;
pos = (170,920);
}
);
layerId = "D419D424-3725-4B78-A608-932C6DF68265";
shapes = (
{
closed = 1;
nodes = (
(60,699,l),
(68,699,l),
(165,718,o),
(261,743,o),
(354,776,c),
(328,920,l),
(319,920,l),
(235,863,o),
(138,813,o),
(50,770,c)
);
}
);
width = 404;
}
);
metricRight = "=|";
script = default;
subCategory = Nonspacing;
unicode = 123566;
},
{
category = "";
glyphname = breathbottom.comp;
lastChange = "2021-12-16 15:11:45 +0000";
layers = (
{
anchors = (
{
name = _bottom;
pos = (158,0);
}
);
layerId = "E40B9561-B6E0-4D94-A2F7-63596B9AF675";
shapes = (
{
closed = 1;
nodes = (
(129,-194,o),
(223,-248,o),
(297,-300,c),
(306,-300,l),
(322,-208,l),
(245,-165,o),
(150,-121,o),
(68,-86,c),
(60,-86,l),
(50,-150,l)
);
}
);
width = 372;
},
{
anchors = (
{
name = _bottom;
pos = (170,0);
}
);
layerId = "D419D424-3725-4B78-A608-932C6DF68265";
shapes = (
{
closed = 1;
nodes = (
(138,-193,o),
(235,-243,o),
(319,-300,c),
(328,-300,l),
(354,-156,l),
(261,-123,o),
(165,-98,o),
(68,-79,c),
(60,-79,l),
(50,-150,l)
);
}
);
width = 404;
}
);
metricRight = "=|";
script = "";
subCategory = "";
},
{
category = "";
glyphname = "breathbottom-I.comp";
lastChange = "2021-12-16 15:11:45 +0000";
layers = (
{
anchors = (
{
name = _bottom;
pos = (186,0);
}
);
layerId = "E40B9561-B6E0-4D94-A2F7-63596B9AF675";
shapes = (
{
closed = 1;
nodes = (
(96,-213,o),
(149,-297,o),
(189,-375,c),
(197,-375,l),
(232,-278,l),
(187,-214,o),
(126,-140,o),
(74,-78,c),
(66,-78,l),
(50,-141,l)
);
}
);
width = 282;
},
{
anchors = (
{
name = _bottom;
pos = (181,0);
}
);
layerId = "D419D424-3725-4B78-A608-932C6DF68265";
shapes = (
{
closed = 1;
nodes = (
(92,-190,o),
(135,-286,o),
(171,-375,c),
(180,-375,l),
(244,-253,l),
(194,-182,o),
(133,-102,o),
(78,-35,c),
(70,-35,l),
(50,-104,l)
);
}
);
width = 294;
}
);
metricRight = "=|";
script = "";
subCategory = "";
},
{
category = "";
glyphname = "breathbottom-AE.comp";
lastChange = "2021-12-16 15:11:45 +0000";
layers = (
{
anchors = (
{
name = _bottom;
pos = (86,0);
}
);
layerId = "E40B9561-B6E0-4D94-A2F7-63596B9AF675";
shapes = (
{
closed = 1;
nodes = (
(115,-87,o),
(191,-171,o),
(250,-245,c),
(259,-245,l),
(273,-148,l),
(214,-86,o),
(134,-14,o),
(66,47,c),
(58,47,l),
(50,-17,l)
);
}
);
width = 323;
},
{
anchors = (
{
name = _bottom;
pos = (75,0);
}
);
layerId = "D419D424-3725-4B78-A608-932C6DF68265";
shapes = (
{
closed = 1;
nodes = (
(122,-91,o),
(204,-169,o),
(273,-245,c),
(282,-245,l),
(308,-101,l),
(234,-48,o),
(146,3,o),
(68,47,c),
(60,47,l),
(50,-24,l)
);
}
);
width = 358;
}
);
metricRight = "=|";
script = "";
subCategory = "";
},
{
category = Letter;
glyphname = uni25CC;
lastChange = "2021-12-16 15:28:28 +0000";
layers = (
{
anchors = (
{
name = bottom;
pos = (297,42);
},
{
name = top;
pos = (297,540);
}
);
layerId = "E40B9561-B6E0-4D94-A2F7-63596B9AF675";
shapes = (
{
closed = 1;
nodes = (
(469,423,o),
(481,435,o),
(481,449,cs),
(481,463,o),
(469,475,o),
(455,475,cs),
(441,475,o),
(429,463,o),
(429,449,cs),
(429,435,o),
(441,423,o),
(455,423,cs)
);
},
{
closed = 1;
nodes = (
(153,107,o),
(165,119,o),
(165,133,cs),
(165,147,o),
(153,159,o),
(139,159,cs),
(125,159,o),
(113,147,o),
(113,133,cs),
(113,119,o),
(125,107,o),
(139,107,cs)
);
},
{
closed = 1;
nodes = (
(227,60,o),
(239,72,o),
(239,86,cs),
(239,100,o),
(227,112,o),
(213,112,cs),
(199,112,o),
(187,100,o),
(187,86,cs),
(187,72,o),
(199,60,o),
(213,60,cs)
);
},
{
closed = 1;
nodes = (
(106,181,o),
(118,193,o),
(118,207,cs),
(118,221,o),
(106,233,o),
(92,233,cs),
(78,233,o),
(66,221,o),
(66,207,cs),
(66,193,o),
(78,181,o),
(92,181,cs)
);
},
{
closed = 1;
nodes = (
(311,42,o),
(323,54,o),
(323,68,cs),
(323,82,o),
(311,94,o),
(297,94,cs),
(283,94,o),
(271,82,o),
(271,68,cs),
(271,54,o),
(283,42,o),
(297,42,cs)
);
},
{
closed = 1;
nodes = (
(88,265,o),
(100,277,o),
(100,291,cs),
(100,305,o),
(88,317,o),
(74,317,cs),
(60,317,o),
(48,305,o),
(48,291,cs),
(48,277,o),
(60,265,o),
(74,265,cs)
);
},
{
closed = 1;
nodes = (
(395,60,o),
(407,72,o),
(407,86,cs),
(407,100,o),
(395,112,o),
(381,112,cs),
(367,112,o),
(355,100,o),
(355,86,cs),
(355,72,o),
(367,60,o),
(381,60,cs)
);
},
{
closed = 1;
nodes = (
(106,349,o),
(118,361,o),
(118,375,cs),
(118,389,o),
(106,401,o),
(92,401,cs),
(78,401,o),
(66,389,o),
(66,375,cs),
(66,361,o),
(78,349,o),
(92,349,cs)
);
},
{
closed = 1;
nodes = (
(153,423,o),
(165,435,o),
(165,449,cs),
(165,463,o),
(153,475,o),
(139,475,cs),
(125,475,o),
(113,463,o),
(113,449,cs),
(113,435,o),
(125,423,o),
(139,423,cs)
);
},
{
closed = 1;
nodes = (
(469,107,o),
(481,119,o),
(481,133,cs),
(481,147,o),
(469,159,o),
(455,159,cs),
(441,159,o),
(429,147,o),
(429,133,cs),
(429,119,o),
(441,107,o),
(455,107,cs)
);
},
{
closed = 1;
nodes = (
(227,470,o),
(239,482,o),
(239,496,cs),
(239,510,o),
(227,522,o),
(213,522,cs),
(199,522,o),
(187,510,o),
(187,496,cs),
(187,482,o),
(199,470,o),
(213,470,cs)
);
},
{
closed = 1;
nodes = (
(516,181,o),
(528,193,o),
(528,207,cs),
(528,221,o),
(516,233,o),
(502,233,cs),
(488,233,o),
(476,221,o),
(476,207,cs),
(476,193,o),
(488,181,o),
(502,181,cs)
);
},
{
closed = 1;
nodes = (
(311,488,o),
(323,500,o),
(323,514,cs),
(323,528,o),
(311,540,o),
(297,540,cs),
(283,540,o),
(271,528,o),
(271,514,cs),
(271,500,o),
(283,488,o),
(297,488,cs)
);
},
{
closed = 1;
nodes = (
(534,265,o),
(546,277,o),
(546,291,cs),
(546,305,o),
(534,317,o),
(520,317,cs),
(506,317,o),
(494,305,o),
(494,291,cs),
(494,277,o),
(506,265,o),
(520,265,cs)
);
},
{
closed = 1;
nodes = (
(395,470,o),
(407,482,o),
(407,496,cs),
(407,510,o),
(395,522,o),
(381,522,cs),
(367,522,o),
(355,510,o),
(355,496,cs),
(355,482,o),
(367,470,o),
(381,470,cs)
);
},
{
closed = 1;
nodes = (
(516,349,o),
(528,361,o),
(528,375,cs),
(528,389,o),
(516,401,o),
(502,401,cs),
(488,401,o),
(476,389,o),
(476,375,cs),
(476,361,o),
(488,349,o),
(502,349,cs)
);
}
);
width = 594;
},
{
anchors = (
{
name = bottom;
pos = (297,42);
},
{
name = top;
pos = (297,540);
}
);
layerId = "D419D424-3725-4B78-A608-932C6DF68265";
shapes = (
{
closed = 1;
nodes = (
(469,423,o),
(481,435,o),
(481,449,cs),
(481,463,o),
(469,475,o),
(455,475,cs),
(441,475,o),
(429,463,o),
(429,449,cs),
(429,435,o),
(441,423,o),
(455,423,cs)
);
},
{
closed = 1;
nodes = (
(153,107,o),
(165,119,o),
(165,133,cs),
(165,147,o),
(153,159,o),
(139,159,cs),
(125,159,o),
(113,147,o),
(113,133,cs),
(113,119,o),
(125,107,o),
(139,107,cs)
);
},
{
closed = 1;
nodes = (
(227,60,o),
(239,72,o),
(239,86,cs),
(239,100,o),
(227,112,o),
(213,112,cs),
(199,112,o),
(187,100,o),
(187,86,cs),
(187,72,o),
(199,60,o),
(213,60,cs)
);
},
{
closed = 1;
nodes = (
(106,181,o),
(118,193,o),
(118,207,cs),
(118,221,o),
(106,233,o),
(92,233,cs),
(78,233,o),
(66,221,o),
(66,207,cs),
(66,193,o),
(78,181,o),
(92,181,cs)
);
},
{
closed = 1;
nodes = (
(311,42,o),
(323,54,o),
(323,68,cs),
(323,82,o),
(311,94,o),
(297,94,cs),
(283,94,o),
(271,82,o),
(271,68,cs),
(271,54,o),
(283,42,o),
(297,42,cs)
);
},
{
closed = 1;
nodes = (
(88,265,o),
(100,277,o),
(100,291,cs),
(100,305,o),
(88,317,o),
(74,317,cs),
(60,317,o),
(48,305,o),
(48,291,cs),
(48,277,o),
(60,265,o),
(74,265,cs)
);
},
{
closed = 1;
nodes = (
(395,60,o),
(407,72,o),
(407,86,cs),
(407,100,o),
(395,112,o),
(381,112,cs),
(367,112,o),
(355,100,o),
(355,86,cs),
(355,72,o),
(367,60,o),
(381,60,cs)
);
},
{
closed = 1;
nodes = (
(106,349,o),
(118,361,o),
(118,375,cs),
(118,389,o),
(106,401,o),
(92,401,cs),
(78,401,o),
(66,389,o),
(66,375,cs),
(66,361,o),
(78,349,o),
(92,349,cs)
);
},
{
closed = 1;
nodes = (
(153,423,o),
(165,435,o),
(165,449,cs),
(165,463,o),
(153,475,o),
(139,475,cs),
(125,475,o),
(113,463,o),
(113,449,cs),
(113,435,o),
(125,423,o),
(139,423,cs)
);
},
{
closed = 1;
nodes = (
(469,107,o),
(481,119,o),
(481,133,cs),
(481,147,o),
(469,159,o),
(455,159,cs),
(441,159,o),
(429,147,o),
(429,133,cs),
(429,119,o),
(441,107,o),
(455,107,cs)
);
},
{
closed = 1;
nodes = (
(227,470,o),
(239,482,o),
(239,496,cs),
(239,510,o),
(227,522,o),
(213,522,cs),
(199,522,o),
(187,510,o),
(187,496,cs),
(187,482,o),
(199,470,o),
(213,470,cs)
);
},
{
closed = 1;
nodes = (
(516,181,o),
(528,193,o),
(528,207,cs),
(528,221,o),
(516,233,o),
(502,233,cs),
(488,233,o),
(476,221,o),
(476,207,cs),
(476,193,o),
(488,181,o),
(502,181,cs)
);
},
{
closed = 1;
nodes = (
(311,488,o),
(323,500,o),
(323,514,cs),
(323,528,o),
(311,540,o),
(297,540,cs),
(283,540,o),
(271,528,o),
(271,514,cs),
(271,500,o),
(283,488,o),
(297,488,cs)
);
},
{
closed = 1;
nodes = (
(534,265,o),
(546,277,o),
(546,291,cs),
(546,305,o),
(534,317,o),
(520,317,cs),
(506,317,o),
(494,305,o),
(494,291,cs),
(494,277,o),
(506,265,o),
(520,265,cs)
);
},
{
closed = 1;
nodes = (
(395,470,o),
(407,482,o),
(407,496,cs),
(407,510,o),
(395,522,o),
(381,522,cs),
(367,522,o),
(355,510,o),
(355,496,cs),
(355,482,o),
(367,470,o),
(381,470,cs)
);
},
{
closed = 1;
nodes = (
(516,349,o),
(528,361,o),
(528,375,cs),
(528,389,o),
(516,401,o),
(502,401,cs),
(488,401,o),
(476,389,o),
(476,375,cs),
(476,361,o),
(488,349,o),
(502,349,cs)
);
}
);
width = 594;
}
);
script = default;
subCategory = Other;
unicode = 9676;
},
